# xmcd
#
# Track frame offsets: 
#        150
#        22027
#        42050
#        61170
#        80542
#        101287
#        117580
#        138110
#        153925
#        174695
#        193680
#        213677
#
# Disc length: 3101 seconds
#
# Revision: 2
# Processed by: cddbd v1.5.2PL0 Copyright (c) Steve Scherf et al.
# Submitted via: ExactAudioCopy v1.0b3
#
DISCID=9f0c1b0c
DTITLE=Various Artist - El Club De La Salsa - Paraquenopares No.4  Me
DTITLE=rengue
DYEAR=1997
DGENRE=Merengue
TTITLE0=El gran encuentro - El gran Encuentro
TTITLE1=Alto Voltaje - Mi propia vida
TTITLE2=Limi-TXXI - Ya te vi
TTITLE3=M.Girls - Total eclipse of the heart
TTITLE4=Manny Manuel - Y se que vas a llorar
TTITLE5=M. Girls - Rin my bells
TTITLE6=Celines - Libre
TTITLE7=Cesar Flores - Confesión
TTITLE8=Charlie Valens - Que vaina E'
TTITLE9=Manny Manuel - Mi problema
TTITLE10=Azucarado - La tiguerona
TTITLE11=La orquesta joven - Latigo del desprecio
EXTD=YEAR: 1997
EXTT0=
EXTT1=
EXTT2=
EXTT3=
EXTT4=
EXTT5=
EXTT6=
EXTT7=
EXTT8=
EXTT9=
EXTT10=
EXTT11=
PLAYORDER=
